<?xml version="1.0" standalone="no"?>
<!DOCTYPE svg PUBLIC "-//W3C//DTD SVG 20010904//EN"
 "http://www.w3.org/TR/2001/REC-SVG-20010904/DTD/svg10.dtd">
<svg version="1.0" xmlns="http://www.w3.org/2000/svg"
 width="795.000000pt" height="795.000000pt" viewBox="0 0 795.000000 795.000000"
 preserveAspectRatio="xMidYMid meet">
<metadata>
Created by potrace 1.14, written by Peter Selinger 2001-2017
</metadata>
<g transform="translate(0.000000,795.000000) scale(0.100000,-0.100000)"
fill="#000000" stroke="none">
<path d="M3675 6810 c-3 -5 -35 -10 -70 -10 -35 0 -67 -4 -70 -10 -3 -5 -30
-10 -60 -10 -30 0 -57 -4 -60 -10 -3 -5 -24 -10 -46 -10 -21 0 -39 -4 -39 -10
0 -5 -18 -10 -40 -10 -22 0 -40 -4 -40 -10 0 -5 -18 -10 -40 -10 -22 0 -40 -4
-40 -10 0 -5 -13 -10 -30 -10 -16 0 -30 -4 -30 -10 0 -5 -13 -10 -30 -10 -16
0 -30 -4 -30 -10 0 -5 -13 -10 -30 -10 -16 0 -30 -4 -30 -10 0 -5 -13 -10 -30
-10 -16 0 -30 -4 -30 -10 0 -5 -9 -10 -20 -10 -11 0 -20 -4 -20 -10 0 -5 -11
-10 -24 -10 -14 0 -28 -4 -31 -10 -3 -5 -15 -10 -26 -10 -10 0 -19 -4 -19 -10
0 -5 -9 -10 -20 -10 -11 0 -20 -4 -20 -10 0 -5 -9 -10 -20 -10 -11 0 -20 -4
-20 -10 0 -5 -9 -10 -20 -10 -11 0 -20 -4 -20 -10 0 -5 -9 -10 -20 -10 -11 0
-20 -4 -20 -10 0 -5 -9 -10 -20 -10 -11 0 -20 -4 -20 -10 0 -5 -9 -10 -20 -10
-11 0 -20 -4 -20 -10 0 -5 -9 -10 -20 -10 -11 0 -20 -4 -20 -10 0 -5 -6 -10
-13 -10 -7 0 -23 -9 -35 -20 -12 -11 -28 -20 -37 -20 -8 0 -15 -4 -15 -8 0 -5
-12 -15 -27 -23 -16 -8 -37 -22 -47 -31 -11 -10 -25 -18 -31 -18 -6 0 -17 -9
-25 -20 -8 -11 -21 -20 -28 -20 -8 0 -27 -13 -42 -30 -15 -16 -33 -30 -40 -30
-6 0 -29 -18 -50 -40 -21 -22 -43 -40 -49 -40 -14 0 -361 -347 -361 -361 0 -6
-18 -28 -40 -49 -22 -21 -40 -44 -40 -50 0 -7 -13 -25 -30 -40 -16 -15 -30
-34 -30 -42 0 -7 -9 -20 -20 -28 -11 -8 -20 -19 -20 -25 0 -6 -8 -20 -17 -31
-10 -10 -24 -31 -32 -46 -8 -16 -18 -28 -23 -28 -4 0 -8 -7 -8 -15 0 -9 -9
-25 -20 -37 -11 -12 -20 -28 -20 -35 0 -7 -4 -13 -10 -13 -5 0 -10 -9 -10 -20
0 -11 -4 -20 -10 -20 -5 0 -10 -9 -10 -20 0 -11 -4 -20 -10 -20 -5 0 -10 -9
-10 -20 0 -11 -4 -20 -10 -20 -5 0 -10 -9 -10 -20 0 -11 -4 -20 -10 -20 -5 0
-10 -9 -10 -20 0 -11 -4 -20 -10 -20 -5 0 -10 -9 -10 -20 0 -11 -4 -20 -10
-20 -5 0 -10 -9 -10 -20 0 -11 -4 -20 -10 -20 -5 0 -10 -9 -10 -19 0 -11 -4
-23 -10 -26 -5 -3 -10 -17 -10 -31 0 -13 -4 -24 -10 -24 -5 0 -10 -9 -10 -20
0 -11 -4 -20 -10 -20 -5 0 -10 -13 -10 -30 0 -16 -4 -30 -10 -30 -5 0 -10 -13
-10 -30 0 -16 -4 -30 -10 -30 -5 0 -10 -13 -10 -30 0 -16 -4 -30 -10 -30 -5 0
-10 -13 -10 -30 0 -16 -4 -30 -10 -30 -5 0 -10 -18 -10 -40 0 -22 -4 -40 -10
-40 -5 0 -10 -18 -10 -40 0 -22 -4 -40 -10 -40 -5 0 -10 -18 -10 -39 0 -22 -4
-43 -10 -46 -5 -3 -10 -30 -10 -60 0 -30 -4 -57 -10 -60 -5 -3 -10 -35 -10
-70 0 -35 -4 -67 -10 -70 -14 -8 -14 -682 0 -690 5 -3 10 -35 10 -70 0 -35 4
-67 10 -70 5 -3 10 -30 10 -60 0 -30 5 -57 10 -60 6 -3 10 -24 10 -46 0 -21 5
-39 10 -39 6 0 10 -18 10 -40 0 -22 5 -40 10 -40 6 0 10 -18 10 -40 0 -22 5
-40 10 -40 6 0 10 -13 10 -30 0 -16 5 -30 10 -30 6 0 10 -13 10 -30 0 -16 5
-30 10 -30 6 0 10 -13 10 -30 0 -16 5 -30 10 -30 6 0 10 -13 10 -30 0 -16 5
-30 10 -30 6 0 10 -9 10 -20 0 -11 5 -20 10 -20 6 0 10 -11 10 -24 0 -14 5
-28 10 -31 6 -3 10 -15 10 -26 0 -10 5 -19 10 -19 6 0 10 -9 10 -20 0 -11 5
-20 10 -20 6 0 10 -9 10 -20 0 -11 5 -20 10 -20 6 0 10 -9 10 -20 0 -11 5 -20
10 -20 6 0 10 -9 10 -20 0 -11 5 -20 10 -20 6 0 10 -9 10 -20 0 -11 5 -20 10
-20 6 0 10 -9 10 -20 0 -11 5 -20 10 -20 6 0 10 -9 10 -20 0 -11 5 -20 10 -20
6 0 10 -6 10 -13 0 -7 9 -23 20 -35 11 -12 20 -28 20 -37 0 -8 4 -15 8 -15 5
0 15 -12 23 -27 8 -16 22 -37 32 -47 9 -11 17 -25 17 -31 0 -6 9 -17 20 -25
11 -8 20 -21 20 -28 0 -8 14 -27 30 -42 17 -15 30 -33 30 -40 0 -6 18 -29 40
-50 22 -21 40 -43 40 -49 0 -14 347 -361 361 -361 6 0 28 -18 49 -40 21 -22
44 -40 50 -40 7 0 25 -13 40 -30 15 -16 34 -30 42 -30 7 0 20 -9 28 -20 8 -11
19 -20 25 -20 6 0 20 -8 31 -17 10 -10 31 -24 47 -32 15 -8 27 -18 27 -23 0
-4 7 -8 15 -8 9 0 25 -9 37 -20 12 -11 28 -20 35 -20 7 0 13 -4 13 -10 0 -5 9
-10 20 -10 11 0 20 -4 20 -10 0 -5 9 -10 20 -10 11 0 20 -4 20 -10 0 -5 9 -10
20 -10 11 0 20 -4 20 -10 0 -5 9 -10 20 -10 11 0 20 -4 20 -10 0 -5 9 -10 20
-10 11 0 20 -4 20 -10 0 -5 9 -10 20 -10 11 0 20 -4 20 -10 0 -5 9 -10 20 -10
11 0 20 -4 20 -10 0 -5 9 -10 19 -10 11 0 23 -5 26 -10 3 -6 17 -10 31 -10 13
0 24 -4 24 -10 0 -5 9 -10 20 -10 11 0 20 -4 20 -10 0 -5 14 -10 30 -10 17 0
30 -4 30 -10 0 -5 14 -10 30 -10 17 0 30 -4 30 -10 0 -5 14 -10 30 -10 17 0
30 -4 30 -10 0 -5 14 -10 30 -10 17 0 30 -4 30 -10 0 -5 18 -10 40 -10 22 0
40 -4 40 -10 0 -5 18 -10 40 -10 22 0 40 -4 40 -10 0 -5 18 -10 39 -10 22 0
43 -4 46 -10 3 -5 30 -10 60 -10 30 0 57 -4 60 -10 3 -5 35 -10 70 -10 35 0
67 -5 70 -10 8 -14 682 -14 690 0 3 6 35 10 70 10 35 0 67 5 70 10 3 6 30 10
60 10 30 0 57 5 60 10 3 6 24 10 46 10 21 0 39 5 39 10 0 6 18 10 40 10 22 0
40 5 40 10 0 6 18 10 40 10 22 0 40 5 40 10 0 6 14 10 30 10 17 0 30 5 30 10
0 6 14 10 30 10 17 0 30 5 30 10 0 6 14 10 30 10 17 0 30 5 30 10 0 6 14 10
30 10 17 0 30 5 30 10 0 6 9 10 20 10 11 0 20 5 20 10 0 6 11 10 24 10 14 0
28 5 31 10 3 6 15 10 26 10 10 0 19 5 19 10 0 6 9 10 20 10 11 0 20 5 20 10 0
6 9 10 20 10 11 0 20 5 20 10 0 6 9 10 20 10 11 0 20 5 20 10 0 6 9 10 20 10
11 0 20 5 20 10 0 6 9 10 20 10 11 0 20 5 20 10 0 6 9 10 20 10 11 0 20 5 20
10 0 6 9 10 20 10 11 0 20 5 20 10 0 6 6 10 13 10 7 0 23 9 35 20 12 11 28 20
37 20 8 0 15 4 15 8 0 5 12 15 28 23 15 8 36 22 46 32 11 9 25 17 31 17 6 0
17 9 25 20 8 11 21 20 28 20 8 0 27 14 42 30 15 17 33 30 40 30 6 0 29 18 50
40 21 22 43 40 49 40 14 0 361 347 361 361 0 6 18 28 40 49 22 21 40 44 40 50
0 7 14 25 30 40 17 15 30 34 30 42 0 7 9 20 20 28 11 8 20 19 20 25 0 6 8 20
18 31 9 10 23 31 31 46 8 16 18 28 23 28 4 0 8 7 8 15 0 9 9 25 20 37 11 12
20 28 20 35 0 7 5 13 10 13 6 0 10 9 10 20 0 11 5 20 10 20 6 0 10 9 10 20 0
11 5 20 10 20 6 0 10 9 10 20 0 11 5 20 10 20 6 0 10 9 10 20 0 11 5 20 10 20
6 0 10 9 10 20 0 11 5 20 10 20 6 0 10 9 10 20 0 11 5 20 10 20 6 0 10 9 10
20 0 11 5 20 10 20 6 0 10 9 10 19 0 11 5 23 10 26 6 3 10 17 10 31 0 13 5 24
10 24 6 0 10 9 10 20 0 11 5 20 10 20 6 0 10 14 10 30 0 17 5 30 10 30 6 0 10
14 10 30 0 17 5 30 10 30 6 0 10 14 10 30 0 17 5 30 10 30 6 0 10 14 10 30 0
17 5 30 10 30 6 0 10 18 10 40 0 22 5 40 10 40 6 0 10 18 10 40 0 22 5 40 10
40 6 0 10 18 10 39 0 22 4 43 10 46 6 3 10 30 10 60 0 30 5 57 10 60 6 3 10
35 10 70 0 35 5 67 10 70 14 8 14 682 0 690 -5 3 -10 35 -10 70 0 35 -4 67
-10 70 -5 3 -10 30 -10 60 0 30 -4 57 -10 60 -5 3 -10 24 -10 46 0 21 -4 39
-10 39 -5 0 -10 18 -10 40 0 22 -4 40 -10 40 -5 0 -10 18 -10 40 0 22 -4 40
-10 40 -5 0 -10 14 -10 30 0 17 -4 30 -10 30 -5 0 -10 14 -10 30 0 17 -4 30
-10 30 -5 0 -10 14 -10 30 0 17 -4 30 -10 30 -5 0 -10 14 -10 30 0 17 -4 30
-10 30 -5 0 -10 9 -10 20 0 11 -4 20 -10 20 -5 0 -10 11 -10 24 0 14 -4 28
-10 31 -5 3 -10 15 -10 26 0 10 -4 19 -10 19 -5 0 -10 9 -10 20 0 11 -4 20
-10 20 -5 0 -10 9 -10 20 0 11 -4 20 -10 20 -5 0 -10 9 -10 20 0 11 -4 20 -10
20 -5 0 -10 9 -10 20 0 11 -4 20 -10 20 -5 0 -10 9 -10 20 0 11 -4 20 -10 20
-5 0 -10 9 -10 20 0 11 -4 20 -10 20 -5 0 -10 9 -10 20 0 11 -4 20 -10 20 -5
0 -10 6 -10 13 0 7 -9 23 -20 35 -11 12 -20 28 -20 37 0 8 -4 15 -8 15 -5 0
-15 12 -23 28 -8 15 -22 36 -31 46 -10 11 -18 25 -18 31 0 6 -9 17 -20 25 -11
8 -20 21 -20 28 0 8 -14 27 -30 42 -16 15 -30 33 -30 40 0 6 -18 29 -40 50
-22 21 -40 43 -40 49 0 14 -347 361 -361 361 -6 0 -28 18 -49 40 -21 22 -44
40 -50 40 -7 0 -25 14 -40 30 -15 17 -34 30 -42 30 -7 0 -20 9 -28 20 -8 11
-19 20 -25 20 -6 0 -20 8 -31 18 -10 9 -31 23 -46 31 -16 8 -28 18 -28 23 0 4
-7 8 -15 8 -9 0 -25 9 -37 20 -12 11 -28 20 -35 20 -7 0 -13 5 -13 10 0 6 -9
10 -20 10 -11 0 -20 5 -20 10 0 6 -9 10 -20 10 -11 0 -20 5 -20 10 0 6 -9 10
-20 10 -11 0 -20 5 -20 10 0 6 -9 10 -20 10 -11 0 -20 5 -20 10 0 6 -9 10 -20
10 -11 0 -20 5 -20 10 0 6 -9 10 -20 10 -11 0 -20 5 -20 10 0 6 -9 10 -20 10
-11 0 -20 5 -20 10 0 6 -9 10 -19 10 -11 0 -23 5 -26 10 -3 6 -17 10 -31 10
-13 0 -24 5 -24 10 0 6 -9 10 -20 10 -11 0 -20 5 -20 10 0 6 -13 10 -30 10
-16 0 -30 5 -30 10 0 6 -13 10 -30 10 -16 0 -30 5 -30 10 0 6 -13 10 -30 10
-16 0 -30 5 -30 10 0 6 -13 10 -30 10 -16 0 -30 5 -30 10 0 6 -18 10 -40 10
-22 0 -40 5 -40 10 0 6 -18 10 -40 10 -22 0 -40 5 -40 10 0 6 -18 10 -39 10
-22 0 -43 5 -46 10 -3 6 -30 10 -60 10 -30 0 -57 5 -60 10 -3 6 -35 10 -70 10
-35 0 -67 5 -70 10 -4 6 -130 10 -345 10 -215 0 -341 -4 -345 -10z"/>
</g>
</svg>
